<?xml version="1.0" encoding="UTF-8"?>
<svg version="1.1" xmlns="http://www.w3.org/2000/svg" width="320" height="320">
<path d="M0 0 C105.6 0 211.2 0 320 0 C320 105.6 320 211.2 320 320 C214.4 320 108.8 320 0 320 C0 214.4 0 108.8 0 0 Z " fill="#FDFDFC" transform="translate(0,0)"/>
<path d="M0 0 C10.69174023 8.93691992 17.68768186 21.14029879 19.43359375 35.0546875 C20.53104282 51.76829709 16.94676428 65.9167636 5.95703125 79.00390625 C-0.97511008 86.32560596 -9.28137234 93.52128244 -19.56640625 95.0546875 C-19.56640625 95.7146875 -19.56640625 96.3746875 -19.56640625 97.0546875 C-18.86515625 97.2403125 -18.16390625 97.4259375 -17.44140625 97.6171875 C-13.50161165 99.5870848 -11.08425729 102.47710801 -8.56640625 106.0546875 C-7.40915435 109.52644319 -7.40350347 112.64866205 -7.3894043 116.26074219 C-7.3828331 116.99120758 -7.3762619 117.72167297 -7.36949158 118.47427368 C-7.34978176 120.89170437 -7.33810046 123.30907297 -7.328125 125.7265625 C-7.32404947 126.55354897 -7.31997395 127.38053543 -7.31577492 128.23258209 C-7.29492288 132.61078135 -7.28061809 136.98894935 -7.27124023 141.3671875 C-7.26018464 145.88091314 -7.22579237 150.39414461 -7.18606853 154.90769577 C-7.15987509 158.38564954 -7.15154594 161.86348612 -7.14795876 165.34152985 C-7.14309891 167.00484805 -7.13150206 168.66816124 -7.11292076 170.33138275 C-7.08847283 172.66500055 -7.08950412 174.99734702 -7.09643555 177.33105469 C-7.07722046 178.35221878 -7.07722046 178.35221878 -7.05761719 179.39401245 C-7.12114846 185.29316071 -9.17911884 189.38654275 -13.09375 193.76171875 C-19.32148457 198.64384862 -23.94437974 199.33926739 -31.60424805 199.23071289 C-32.50575089 199.22630188 -33.40725372 199.22189087 -34.33607483 199.21734619 C-36.29001338 199.20751556 -38.24393495 199.19366674 -40.19782066 199.17625618 C-44.36145218 199.14380217 -48.52483623 199.14628709 -52.68857288 199.14654446 C-60.43454288 199.14640095 -68.17988075 199.13134012 -75.92553711 199.05834961 C-81.31986951 199.00885838 -86.71272773 199.00345285 -92.10721779 199.02648735 C-94.15604454 199.0270541 -96.20494512 199.01148347 -98.25351524 198.97905159 C-111.4602743 198.43310778 -111.4602743 198.43310778 -122.70996094 204.45849609 C-124.03016868 205.96073921 -125.32175177 207.48927443 -126.56640625 209.0546875 C-128.40540666 210.59382542 -130.25602138 212.11946579 -132.12890625 213.6171875 C-136.4924067 217.12158517 -140.58852965 220.81085276 -144.59375 224.71875 C-145.24472656 225.15960938 -145.89570313 225.60046875 -146.56640625 226.0546875 C-148.68969727 225.63818359 -148.68969727 225.63818359 -150.56640625 225.0546875 C-152.34623306 216.04176912 -153.54837045 206.97674078 -154.69140625 197.8671875 C-154.87473038 196.42379386 -155.05832238 194.98043421 -155.2421875 193.53710938 C-155.68667543 190.04335434 -156.12756151 186.54915641 -156.56640625 183.0546875 C-157.2843335 182.93641602 -158.00226074 182.81814453 -158.74194336 182.69628906 C-180.2146353 179.00507989 -196.04160423 167.90867155 -209.56640625 151.0546875 C-223.52050072 131.01153363 -227.17980514 108.68887302 -224.09375 84.7265625 C-220.854292 67.42358921 -211.06062374 50.74543731 -197.00390625 40.1171875 C-182.6800267 30.45689664 -166.48039812 26.47603322 -149.43359375 29.73828125 C-128.92882762 34.81184248 -113.9899182 47.98760539 -102.94140625 65.6171875 C-98.7356881 73.01345046 -96.17459416 80.99127871 -93.56640625 89.0546875 C-90.67964469 80.0030876 -90.67964469 80.0030876 -91.59765625 70.80859375 C-92.66989466 68.82968316 -93.78033473 66.87104946 -94.92578125 64.93359375 C-100.68466284 54.82812772 -101.07744195 41.75499374 -98.875 30.53125 C-93.99993726 13.35634277 -84.32150252 1.29357116 -68.84765625 -7.48828125 C-45.7683104 -19.34077664 -20.31631925 -15.39958445 0 0 Z " fill="#056FFB" transform="translate(262.56640625,54.9453125)"/>
<path d="M0 0 C10.69174023 8.93691992 17.68768186 21.14029879 19.43359375 35.0546875 C20.53104282 51.76829709 16.94676428 65.9167636 5.95703125 79.00390625 C-0.97511008 86.32560596 -9.28137234 93.52128244 -19.56640625 95.0546875 C-19.56640625 95.7146875 -19.56640625 96.3746875 -19.56640625 97.0546875 C-18.90640625 97.3846875 -18.24640625 97.7146875 -17.56640625 98.0546875 C-20.49609375 98.00585938 -20.49609375 98.00585938 -23.42578125 97.95703125 C-25.54634075 97.97940723 -25.54634075 97.97940723 -27.45825195 98.5480957 C-30.9293214 99.38219751 -34.45252626 99.2895312 -38.00390625 99.3046875 C-38.8043335 99.30863525 -39.60476074 99.31258301 -40.42944336 99.31665039 C-46.39991183 99.25874264 -51.74913476 98.38100586 -57.4765625 96.61328125 C-65.20299793 95.21646675 -72.01056931 97.65755373 -79.12890625 100.4921875 C-84.90033135 102.75138135 -90.51745008 104.67583037 -96.56640625 106.0546875 C-96.47101563 105.38824219 -96.375625 104.72179687 -96.27734375 104.03515625 C-95.52659624 97.79347634 -95.74866858 92.58746175 -97.19140625 86.46484375 C-97.56640625 84.0546875 -97.56640625 84.0546875 -96.56640625 80.0546875 C-95.57640625 83.0246875 -94.58640625 85.9946875 -93.56640625 89.0546875 C-90.67964469 80.0030876 -90.67964469 80.0030876 -91.59765625 70.80859375 C-92.66989466 68.82968316 -93.78033473 66.87104946 -94.92578125 64.93359375 C-100.68466284 54.82812772 -101.07744195 41.75499374 -98.875 30.53125 C-93.99993726 13.35634277 -84.32150252 1.29357116 -68.84765625 -7.48828125 C-45.7683104 -19.34077664 -20.31631925 -15.39958445 0 0 Z " fill="#046DFA" transform="translate(262.56640625,54.9453125)"/>
<path d="M0 0 C0.98178223 -0.00430527 0.98178223 -0.00430527 1.98339844 -0.00869751 C3.36524319 -0.01073618 4.74711693 -0.00521996 6.12890625 0.00732422 C8.2428445 0.02338314 10.35487113 0.00747149 12.46875 -0.01171875 C13.81250422 -0.00973628 15.15625724 -0.00589252 16.5 0 C17.72203125 0.00338379 18.9440625 0.00676758 20.203125 0.01025391 C23.25 0.3984375 23.25 0.3984375 24.91517639 1.61178589 C26.67995133 3.9739242 26.63624646 5.43894475 26.65405273 8.37304688 C26.66673691 9.38419556 26.67942108 10.39534424 26.69248962 11.43713379 C26.68955399 12.52780151 26.68661835 13.61846924 26.68359375 14.7421875 C26.6888356 15.86282593 26.69407745 16.98346436 26.69947815 18.13806152 C26.70590463 20.50853649 26.70455331 22.87904331 26.69604492 25.24951172 C26.68753296 28.88436402 26.71629312 32.51764673 26.74804688 36.15234375 C26.74965882 38.45312453 26.74908148 40.7539081 26.74609375 43.0546875 C26.76294472 44.69068909 26.76294472 44.69068909 26.78013611 46.35974121 C26.76606468 47.87646423 26.76606468 47.87646423 26.75170898 49.42382812 C26.75154282 50.3141272 26.75137665 51.20442627 26.75120544 52.1217041 C26.25 54.3984375 26.25 54.3984375 24.41043091 56.18409729 C20.00894216 58.65809669 14.64966007 57.87614463 9.72290039 57.84448242 C7.68989616 57.83594756 5.65968166 57.86478826 3.62695312 57.89648438 C2.34626953 57.89583984 1.06558594 57.89519531 -0.25390625 57.89453125 C-2.01456421 57.89731079 -2.01456421 57.89731079 -3.81079102 57.90014648 C-6.75 57.3984375 -6.75 57.3984375 -8.40943909 55.67935181 C-9.9760657 53.01379516 -10.12975451 51.47567288 -10.13818359 48.40209961 C-10.14764008 47.41104721 -10.15709656 46.41999481 -10.1668396 45.39891052 C-10.16076691 44.33527786 -10.15469421 43.2716452 -10.1484375 42.17578125 C-10.15130768 41.07875381 -10.15417786 39.98172638 -10.15713501 38.85145569 C-10.15917536 36.53402184 -10.15364759 34.21657077 -10.14111328 31.89916992 C-10.12504461 28.34580139 -10.14097164 24.79356773 -10.16015625 21.24023438 C-10.15817412 18.98958082 -10.15433106 16.73892797 -10.1484375 14.48828125 C-10.15451019 13.42262436 -10.16058289 12.35696747 -10.1668396 11.25901794 C-10.15738312 10.27111771 -10.14792664 9.28321747 -10.13818359 8.26538086 C-10.13579681 7.39586288 -10.13341003 6.52634491 -10.13095093 5.63047791 C-9.1483425 -0.12675105 -5.06765451 0.01403227 0 0 Z " fill="#DEEEF7" transform="translate(210.75,175.6015625)"/>
<path d="M0 0 C5.8129004 0.38462387 8.66139325 1.76333619 12.9375 5.6875 C13.89527344 6.53699219 14.85304687 7.38648437 15.83984375 8.26171875 C18 11 18 11 18.734375 13.9921875 C17.64323251 18.46122854 15.02019472 19.9595302 11.3125 22.4375 C10.68666016 22.89576172 10.06082031 23.35402344 9.41601562 23.82617188 C4.82220982 27.01537946 4.82220982 27.01537946 1.28515625 26.94921875 C-1.07414118 25.96920289 -2.88256664 24.97407742 -4.875 23.375 C-5.49117188 22.90835938 -6.10734375 22.44171875 -6.7421875 21.9609375 C-8 20 -8 20 -7.91796875 16.72265625 C-6.92858023 12.71037003 -5.47257042 9.65162419 -3.4375 6.0625 C-2.79683594 4.91910156 -2.15617187 3.77570313 -1.49609375 2.59765625 C-0.75552734 1.31181641 -0.75552734 1.31181641 0 0 Z " fill="#F1F2F7" transform="translate(128,111)"/>
<path d="M0 0 C3.31118139 1.49003162 4.19176605 3.98322746 5.859375 7.13671875 C6.77976562 8.82861328 6.77976562 8.82861328 7.71875 10.5546875 C9.16614033 14.08778357 9.64116981 16.18494569 9.109375 19.94921875 C7.7890625 22.1015625 7.7890625 22.1015625 5.984375 23.88671875 C5.40429688 24.49386719 4.82421875 25.10101563 4.2265625 25.7265625 C2.109375 26.94921875 2.109375 26.94921875 -0.765625 26.93359375 C-4.62222745 25.71876398 -6.77585114 23.97196091 -9.765625 21.26171875 C-10.73242188 20.41222656 -11.69921875 19.56273438 -12.6953125 18.6875 C-14.890625 15.94921875 -14.890625 15.94921875 -15.546875 12.91796875 C-14.64141328 8.82183238 -12.82696942 7.63512386 -9.515625 5.13671875 C-8.51789063 4.36714844 -7.52015625 3.59757812 -6.4921875 2.8046875 C-2.46682031 -0.06625757 -2.46682031 -0.06625757 0 0 Z " fill="#F1F3F7" transform="translate(77.890625,104.05078125)"/>
<path d="M0 0 C1.19496094 -0.00386719 1.19496094 -0.00386719 2.4140625 -0.0078125 C3.24679688 -0.00007812 4.07953125 0.00765625 4.9375 0.015625 C5.77023438 0.00789062 6.60296875 0.00015625 7.4609375 -0.0078125 C8.25757812 -0.00523437 9.05421875 -0.00265625 9.875 0 C10.60589844 0.00225586 11.33679688 0.00451172 12.08984375 0.00683594 C13.9375 0.265625 13.9375 0.265625 15.9375 2.265625 C17.20659718 6.58055541 16.96483533 10.80996668 16.9375 15.265625 C14.52837645 16.63499001 12.11175815 17.98604493 9.6875 19.328125 C9.00558594 19.71806641 8.32367188 20.10800781 7.62109375 20.50976562 C6.95722656 20.87392578 6.29335938 21.23808594 5.609375 21.61328125 C5.0019043 21.95367432 4.39443359 22.29406738 3.76855469 22.64477539 C1.44106881 23.43394827 0.20611332 23.14395379 -2.0625 22.265625 C-3.07421875 20.55859375 -3.07421875 20.55859375 -3.75 18.453125 C-4.09611328 17.42251953 -4.09611328 17.42251953 -4.44921875 16.37109375 C-5.88648549 11.43678311 -6.31220484 7.42619163 -6.0625 2.265625 C-3.69681778 -0.10005722 -3.21017774 0.00990796 0 0 Z " fill="#F1F2F7" transform="translate(57.0625,160.734375)"/>
<path d="M0 0 C1.2065625 0.0309375 1.2065625 0.0309375 2.4375 0.0625 C4.21717263 8.10280671 5.87380637 15.77267896 5.4375 24.0625 C3.66523547 23.77965982 1.894712 23.48589502 0.125 23.1875 C-0.86113281 23.02507812 -1.84726563 22.86265625 -2.86328125 22.6953125 C-5.5625 22.0625 -5.5625 22.0625 -8.5625 20.0625 C-9.76426357 13.15235947 -6.51241715 7.19445892 -3.5625 1.0625 C-2.5625 0.0625 -2.5625 0.0625 0 0 Z " fill="#E5E9F3" transform="translate(98.5625,198.9375)"/>
<path d="M0 0 C5.8946372 2.40151886 9.29513775 7.29692795 12.8046875 12.3515625 C14.34678678 14.47824844 16.01104698 16.28538532 18 18 C18.66 18 19.32 18 20 18 C20.33 16.68 20.66 15.36 21 14 C25.22179572 20.14079378 27.63310698 25.13874185 26.34887695 32.56640625 C25.65929617 35.74394903 24.88186666 38.8697706 24 42 C22 41 22 41 20.73828125 37.60546875 C20.26054841 36.1336127 19.78545788 34.66089735 19.3125 33.1875 C15.54960957 22.06288793 10.15588468 12.97362303 2.6015625 3.9609375 C1 2 1 2 0 0 Z " fill="#E8ECF3" transform="translate(146,103)"/>
<path d="M0 0 C0 0.33 0 0.66 0 1 C-0.7425 0.979375 -1.485 0.95875 -2.25 0.9375 C-4.93826222 0.88266896 -4.93826222 0.88266896 -7.1875 1.625 C-7.785625 1.74875 -8.38375 1.8725 -9 2 C-9.66 1.34 -10.32 0.68 -11 0 C-13.87342061 -0.19856972 -16.62861988 -0.27828946 -19.5 -0.25 C-20.67755859 -0.26160156 -20.67755859 -0.26160156 -21.87890625 -0.2734375 C-26.41532251 -0.44419897 -26.41532251 -0.44419897 -30 2 C-31.134375 1.938125 -32.26875 1.87625 -33.4375 1.8125 C-39.09901557 1.66706657 -44.36088063 3.83696407 -49 7 C-50.35931797 9.56040442 -50.35931797 9.56040442 -51 12 C-51.66 11.67 -52.32 11.34 -53 11 C-54.94996045 11.80767387 -54.94996045 11.80767387 -57 13 C-57.70125 13.28875 -58.4025 13.5775 -59.125 13.875 C-61.11288334 14.83496342 -61.11288334 14.83496342 -61.828125 16.7109375 C-63.38130975 19.74482505 -65.44528361 22.13434033 -67.625 24.75 C-68.85089844 26.22726563 -68.85089844 26.22726563 -70.1015625 27.734375 C-71.04128906 28.85585937 -71.04128906 28.85585937 -72 30 C-72.33 29.34 -72.66 28.68 -73 28 C-55.81301658 3.313242 -29.89167444 -9.84666923 0 0 Z " fill="#398DE7" transform="translate(121,87)"/>
<path d="M0 0 C2.9375 2.0625 2.9375 2.0625 5 5 C5 8.51955419 4.63108355 10.84920059 2.9375 13.9375 C-0.26063137 15.69131398 -3.45325707 15.6502362 -7 15 C-9.91781637 12.72045596 -9.97820387 11.17436907 -10.4375 7.5 C-10 4 -10 4 -8.375 1.5625 C-5.24316508 -0.49791771 -3.68455227 -0.6767545 0 0 Z " fill="#F4F6F7" transform="translate(226,89)"/>
<path d="M0 0 C2.875 2.0625 2.875 2.0625 5 5 C5.06625411 8.8427383 4.81899419 10.99200716 2.375 14 C-1.11581787 15.46981805 -3.39148956 14.98413921 -7 14 C-9 12.375 -9 12.375 -10 10 C-9.93351603 6.21041394 -9.83225402 3.92142409 -7.25 1.0625 C-4.45370167 -0.25797421 -3.05488134 -0.59607441 0 0 Z " fill="#F3F5F7" transform="translate(252,105)"/>
<path d="M0 0 C2.5 1.5625 2.5 1.5625 4 4 C3.93913078 7.46954545 3.6274029 9.91947278 1.875 12.9375 C-1.22289358 14.69297303 -3.52844534 14.48723574 -7 14 C-9.5 11.875 -9.5 11.875 -11 9 C-10.936318 5.81590023 -10.51040601 3.85067668 -8.875 1.125 C-5.83167192 -0.70099685 -3.45750445 -0.42460581 0 0 Z " fill="#F1F5F6" transform="translate(253,73)"/>
<path d="M0 0 C2.6923481 2.18753283 2.93936827 3.58423955 3.4375 7 C3 10 3 10 1.4375 12.375 C-1.8994213 14.5996142 -4.06905293 14.50030235 -8 14 C-9.9375 13 -9.9375 13 -11 11 C-11.52673518 7.43897344 -11.62932095 4.2586419 -10 1 C-6.73916234 -0.63041883 -3.55761554 -0.65964122 0 0 Z " fill="#F2F6F6" transform="translate(201,73)"/>
<path d="M0 0 C2.6923481 2.18753283 2.93936827 3.58423955 3.4375 7 C3 10 3 10 1.375 12.375 C-1.71186432 14.48706506 -3.3282913 14.61195145 -7 14 C-9.375 12.4375 -9.375 12.4375 -11 10 C-11.42213381 6.56262469 -11.60856522 4.17909511 -10 1.0625 C-6.75895557 -0.65930485 -3.57577233 -0.66300779 0 0 Z " fill="#F8F8F7" transform="translate(201,106)"/>
<path d="M0 0 C2.38647053 0.11964172 4.77318908 0.23446395 7.16015625 0.34375 C8.19922119 0.39724609 9.23828613 0.45074219 10.30883789 0.50585938 C13.04891596 0.6373682 13.04891596 0.6373682 15.9375 -0.5 C16.4325 -0.005 16.4325 -0.005 16.9375 0.5 C18.44565304 0.59837014 19.95836946 0.62798518 21.46972656 0.62939453 C22.91693085 0.63412277 22.91693085 0.63412277 24.39337158 0.63894653 C25.44434021 0.6369223 26.49530884 0.63489807 27.578125 0.6328125 C28.65245789 0.63376923 29.72679077 0.63472595 30.8336792 0.63571167 C33.11356667 0.63639389 35.39345607 0.63453673 37.67333984 0.63037109 C41.1585734 0.62504421 44.64367685 0.63030391 48.12890625 0.63671875 C50.34114612 0.63605757 52.5533859 0.63477557 54.765625 0.6328125 C55.8084967 0.63483673 56.85136841 0.63686096 57.92584229 0.63894653 C58.90325378 0.63579437 59.88066528 0.63264221 60.88769531 0.62939453 C62.17223602 0.62820114 62.17223602 0.62820114 63.48272705 0.62698364 C66.05050193 0.49415449 68.43200258 0.06422522 70.9375 -0.5 C68.400195 2.1300399 66.37855473 2.72602541 62.84991455 2.86076355 C61.15418371 2.86945242 59.45831928 2.86150293 57.76269531 2.84057617 C56.835522 2.84101425 55.90834869 2.84145233 54.95307922 2.84190369 C51.89037981 2.83981472 48.82822871 2.81647828 45.765625 2.79296875 C43.6414215 2.78737319 41.51721413 2.7831029 39.39300537 2.78010559 C33.80337832 2.76865373 28.2139853 2.73918341 22.62445068 2.70599365 C16.92023891 2.67530025 11.21598931 2.6616018 5.51171875 2.64648438 C-5.6797903 2.6143142 -16.87112568 2.56311356 -28.0625 2.5 C-22.27631078 -3.28618922 -7.59785983 -0.39220144 0 0 Z " fill="#0759F1" transform="translate(176.0625,250.5)"/>
<path d="M0 0 C0.33 0 0.66 0 1 0 C1.85114719 18.0099124 2.13259615 35.97100301 2 54 C-0.08838397 52.31422361 -0.92823392 51.43982798 -1.36749268 48.74777222 C-1.36384705 47.86920563 -1.36020142 46.99063904 -1.35644531 46.08544922 C-1.35944641 45.08786591 -1.36244751 44.09028259 -1.36553955 43.06246948 C-1.35319275 41.98740143 -1.34084595 40.91233337 -1.328125 39.8046875 C-1.32625183 38.70150177 -1.32437866 37.59831604 -1.32244873 36.46170044 C-1.31572443 34.12987241 -1.30180252 31.79805574 -1.28125 29.46630859 C-1.25006423 25.88238131 -1.2402771 22.29889332 -1.234375 18.71484375 C-1.22520663 16.4531196 -1.21483139 14.19139994 -1.203125 11.9296875 C-1.19887512 10.85057098 -1.19462524 9.77145447 -1.19024658 8.65963745 C-1.18063904 7.66835846 -1.17103149 6.67707947 -1.16113281 5.65576172 C-1.15430481 4.77878632 -1.14747681 3.90181091 -1.14044189 2.9982605 C-1 1 -1 1 0 0 Z " fill="#ADCEED" transform="translate(202,178)"/>
<path d="M0 0 C0.33 0 0.66 0 1 0 C1.09282946 9.78819251 1.16383059 19.57627967 1.20724869 29.36482334 C1.22809112 33.91044772 1.25634729 38.4557701 1.30175781 43.0012207 C1.34533541 47.39085277 1.36916225 51.78019503 1.37950897 56.17002678 C1.38687903 57.84173072 1.40127112 59.51341946 1.42292023 61.18499947 C1.45211368 63.53326362 1.45594952 65.88034228 1.45410156 68.22875977 C1.46848267 68.91424896 1.48286377 69.59973816 1.49768066 70.30599976 C1.4521572 75.67989479 -0.02680249 78.67705487 -3 83 C-4.485 83.99 -4.485 83.99 -6 85 C-6 83.68 -6 82.36 -6 81 C-5.34 81 -4.68 81 -4 81 C-3.67 80.01 -3.34 79.02 -3 78 C-2.34 78 -1.68 78 -1 78 C-0.67 52.26 -0.34 26.52 0 0 Z " fill="#0B5CDA" transform="translate(254,164)"/>
<path d="M0 0 C0.66 0.33 1.32 0.66 2 1 C2.65308812 3.34872059 3.17764312 5.61085075 3.625 8 C3.81956787 9.02939697 3.81956787 9.02939697 4.01806641 10.07958984 C6.38581963 23.22791279 3.96584729 35.06830541 -2 47 C-2.66 47 -3.32 47 -4 47 C-3.02021264 44.02533028 -2.02507833 41.06718063 -0.9296875 38.1328125 C3.53616958 25.39684972 2.77213037 13.06861462 0 0 Z " fill="#E1ECF3" transform="translate(279,78)"/>
<path d="M0 0 C15.13721668 -0.61784558 27.88389714 0.5335209 41 9 C36.84228506 10.31538327 34.1120703 9.34433068 30 8 C30 7.34 30 6.68 30 6 C29.31292969 5.79503906 28.62585938 5.59007812 27.91796875 5.37890625 C27.01691406 5.10949219 26.11585938 4.84007812 25.1875 4.5625 C23.84751953 4.16224609 23.84751953 4.16224609 22.48046875 3.75390625 C20.64526945 3.19612127 18.81966274 2.60655425 17 2 C15.66636297 1.85596652 14.32781954 1.75409577 12.98828125 1.68359375 C11.85229492 1.62075195 11.85229492 1.62075195 10.69335938 1.55664062 C9.51483398 1.49766602 9.51483398 1.49766602 8.3125 1.4375 C7.51521484 1.39431641 6.71792969 1.35113281 5.89648438 1.30664062 C3.93118553 1.20072632 1.96561504 1.09987449 0 1 C0 0.67 0 0.34 0 0 Z " fill="#3085E0" transform="translate(215,41)"/>
<path d="M0 0 C0.99 0.66 1.98 1.32 3 2 C2.01 2.495 2.01 2.495 1 3 C0.59178278 5.80002335 0.59178278 5.80002335 1 9 C3.08266103 11.5917861 3.08266103 11.5917861 5.875 13.75 C7.23238281 14.88695313 7.23238281 14.88695313 8.6171875 16.046875 C9.40351562 16.69140625 10.18984375 17.3359375 11 18 C11.66 18.66 12.32 19.32 13 20 C12.071875 19.835 11.14375 19.67 10.1875 19.5 C7.04378647 18.92251612 7.04378647 18.92251612 4 19 C3.71125 18.360625 3.4225 17.72125 3.125 17.0625 C2.17176549 14.84793921 2.17176549 14.84793921 0 14 C0 12.68 0 11.36 0 10 C-0.99 10 -1.98 10 -3 10 C-2.49287967 6.28111761 -1.88391785 3.26545761 0 0 Z " fill="#2084EC" transform="translate(63,111)"/>
<path d="M0 0 C-6.58515284 2.91266376 -6.58515284 2.91266376 -9.375 3.5 C-10.179375 3.7475 -10.179375 3.7475 -11 4 C-11.33 4.99 -11.66 5.98 -12 7 C-12.9075 7.103125 -13.815 7.20625 -14.75 7.3125 C-18.13146854 8.02781065 -19.40883682 8.82676637 -22 11 C-24.625 12.75 -24.625 12.75 -27 14 C-27.66 13.67 -28.32 13.34 -29 13 C-22.66044432 6.94860594 -9.23015297 -3.55005884 0 0 Z " fill="#3089E5" transform="translate(211,43)"/>
<path d="M0 0 C0.79647949 0.00128906 1.59295898 0.00257812 2.41357422 0.00390625 C9.06948064 0.11123794 15.16512698 1.2257183 21.5 3.3125 C21.5 3.6425 21.5 3.9725 21.5 4.3125 C20.7575 4.291875 20.015 4.27125 19.25 4.25 C16.56173778 4.19516896 16.56173778 4.19516896 14.3125 4.9375 C13.714375 5.06125 13.11625 5.185 12.5 5.3125 C11.84 4.6525 11.18 3.9925 10.5 3.3125 C8.49927141 3.10618131 8.49927141 3.10618131 6.1875 3.25 C-0.08173208 3.38768445 -6.25866805 2.86032851 -12.5 2.3125 C-8.61985264 -0.27770475 -4.49195493 -0.02980356 0 0 Z " fill="#4692E4" transform="translate(99.5,83.6875)"/>
<path d="M0 0 C1.19496094 -0.00386719 1.19496094 -0.00386719 2.4140625 -0.0078125 C3.24679688 -0.00007812 4.07953125 0.00765625 4.9375 0.015625 C5.77023438 0.00789062 6.60296875 0.00015625 7.4609375 -0.0078125 C8.25757812 -0.00523437 9.05421875 -0.00265625 9.875 0 C10.60589844 0.00225586 11.33679688 0.00451172 12.08984375 0.00683594 C13.9375 0.265625 13.9375 0.265625 15.9375 2.265625 C15.5625 4.390625 15.5625 4.390625 14.9375 6.265625 C14.6075 5.275625 14.2775 4.285625 13.9375 3.265625 C8.6575 3.265625 3.3775 3.265625 -2.0625 3.265625 C-3.0525 5.575625 -4.0425 7.885625 -5.0625 10.265625 C-5.3925 10.265625 -5.7225 10.265625 -6.0625 10.265625 C-6.2578125 4.2109375 -6.2578125 4.2109375 -6.0625 2.265625 C-3.69681778 -0.10005722 -3.21017774 0.00990796 0 0 Z " fill="#E2EAF4" transform="translate(57.0625,160.734375)"/>
<path d="M0 0 C1.32 0 2.64 0 4 0 C3.45986777 4.12398256 2.22091818 6.46177045 -0.375 9.6875 C-0.98085938 10.45449219 -1.58671875 11.22148437 -2.2109375 12.01171875 C-4 14 -4 14 -7 16 C-6.67 14.02 -6.34 12.04 -6 10 C-5.01 10 -4.02 10 -3 10 C-2.86722656 9.36191406 -2.73445313 8.72382813 -2.59765625 8.06640625 C-2.42105469 7.24011719 -2.24445313 6.41382812 -2.0625 5.5625 C-1.88847656 4.73878906 -1.71445312 3.91507812 -1.53515625 3.06640625 C-1 1 -1 1 0 0 Z " fill="#1B62EB" transform="translate(272,120)"/>
<path d="M0 0 C10.25130059 1.47783348 18.80502453 9.00488496 26 16 C25.34 16.33 24.68 16.66 24 17 C23.01 16.67 22.02 16.34 21 16 C21 15.34 21 14.68 21 14 C20.34 14 19.68 14 19 14 C18.34 13.01 17.68 12.02 17 11 C16.01 11 15.02 11 14 11 C14 10.01 14 9.02 14 8 C13.360625 7.773125 12.72125 7.54625 12.0625 7.3125 C7.86679739 5.51434174 3.96099444 3.26095979 0 1 C0 0.67 0 0.34 0 0 Z " fill="#428FDF" transform="translate(121,88)"/>
<path d="M0 0 C2 1.625 2 1.625 3 4 C3.1875 7.25 3.1875 7.25 3 10 C1 9 1 9 0.3671875 7.15234375 C0.20476562 6.42144531 0.04234375 5.69054687 -0.125 4.9375 C-0.29257813 4.20402344 -0.46015625 3.47054687 -0.6328125 2.71484375 C-0.75398437 2.14894531 -0.87515625 1.58304687 -1 1 C-4.47548841 1.53977565 -4.47548841 1.53977565 -8 3 C-9.53146378 6.00594421 -9.53146378 6.00594421 -10 9 C-9.34 9 -8.68 9 -8 9 C-8.33 10.32 -8.66 11.64 -9 13 C-11.46324069 9.30513897 -11.38991688 7.36706908 -11 3 C-8.85340848 -1.15902108 -4.1255915 -0.76495342 0 0 Z " fill="#E2EDF3" transform="translate(201,106)"/>
<path d="M0 0 C3.375 0.3125 3.375 0.3125 7 1 C7.66 1.99 8.32 2.98 9 4 C5.7 4 2.4 4 -1 4 C-1 5.65 -1 7.3 -1 9 C-2.98 9.99 -2.98 9.99 -5 11 C-3.77472971 6.94718288 -2.30119506 3.55639236 0 0 Z " fill="#DDE8F4" transform="translate(128,111)"/>
<path d="M0 0 C-3 2 -3 2 -5.5625 2.875 C-8.15101147 3.74255148 -8.15101147 3.74255148 -8.875 6 C-10 8 -10 8 -13.625 9.25 C-14.73875 9.4975 -15.8525 9.745 -17 10 C-5.64159292 -1.69247788 -5.64159292 -1.69247788 0 0 Z " fill="#D8E4F1" transform="translate(80,105)"/>
<path d="M0 0 C4.21814817 3.9700218 7.61227103 8.30840284 11 13 C10.67 13.66 10.34 14.32 10 15 C8.125 14.375 8.125 14.375 6 13 C5.29618843 11.01276732 4.6288189 9.01222047 4 7 C3.01 6.34 2.02 5.68 1 5 C0.3125 2.375 0.3125 2.375 0 0 Z " fill="#3287E3" transform="translate(147,105)"/>
<path d="M0 0 C2.3125 2 2.3125 2 4 4 C-0.08886655 5.36295552 -2.74558065 4.67530466 -7 4 C-7.66 3.67 -8.32 3.34 -9 3 C-5.9769592 0.31285262 -4.05955704 -0.71042248 0 0 Z " fill="#D5E2EF" transform="translate(252,105)"/>
<path d="M0 0 C2.0625 2.3125 2.0625 2.3125 4 5 C3.67 5.99 3.34 6.98 3 8 C4.32 8.33 5.64 8.66 7 9 C6.34 9.66 5.68 10.32 5 11 C2.9375 10.8125 2.9375 10.8125 1 10 C-0.1577506 6.52674819 -0.06866652 3.63932552 0 0 Z " fill="#2B66D9" transform="translate(111,270)"/>
<path d="M0 0 C0.66 0.33 1.32 0.66 2 1 C1.34 1.66 0.68 2.32 0 3 C0.66 3.33 1.32 3.66 2 4 C2.33 4.99 2.66 5.98 3 7 C3.66 7.66 4.32 8.32 5 9 C1.07176899 9 -0.06618894 7.48245551 -3 5 C-3.66 4.67 -4.32 4.34 -5 4 C-5 3.34 -5 2.68 -5 2 C-2.625 0.9375 -2.625 0.9375 0 0 Z " fill="#DDE7F0" transform="translate(248,148)"/>
<path d="M0 0 C0.66 0 1.32 0 2 0 C2.5625 1.9375 2.5625 1.9375 3 4 C2.67 4.33 2.34 4.66 2 5 C1.6068352 6.67884238 1.25914548 8.36850045 0.9375 10.0625 C0.67259766 11.44115234 0.67259766 11.44115234 0.40234375 12.84765625 C0.26957031 13.55792969 0.13679687 14.26820313 0 15 C0.66 15.33 1.32 15.66 2 16 C0.68 16.33 -0.64 16.66 -2 17 C-1.855625 15.865625 -1.71125 14.73125 -1.5625 13.5625 C-0.99698633 9.04646944 -0.49225191 4.52452819 0 0 Z " fill="#256DDE" transform="translate(172,127)"/>
<path d="M0 0 C3.15268314 4.72902471 5.52668153 9.20650322 5 15 C4.01 15 3.02 15 2 15 C1.66223316 13.2508503 1.32996329 11.50063855 1 9.75 C0.814375 8.77546875 0.62875 7.8009375 0.4375 6.796875 C0 4 0 4 0 0 Z " fill="#2B6ED9" transform="translate(165,135)"/>
<path d="M0 0 C3.87990465 1.12086134 6.28003781 2.03276853 9 5 C10.051875 5.4640625 10.051875 5.4640625 11.125 5.9375 C13 7 13 7 13.75 9.125 C13.87375 10.053125 13.87375 10.053125 14 11 C9.19428515 7.87628535 4.42514791 4.65018546 0 1 C0 0.67 0 0.34 0 0 Z " fill="#E1EBF2" transform="translate(132,92)"/>
<path d="M0 0 C2.375 1.5 2.375 1.5 4 3 C3.67 3.66 3.34 4.32 3 5 C2.34 5 1.68 5 1 5 C1 4.34 1 3.68 1 3 C-4.08303686 2.88679144 -4.08303686 2.88679144 -9 4 C-9 3.34 -9 2.68 -9 2 C-5.51131349 -0.32579101 -4.10281481 -0.41865457 0 0 Z " fill="#DCE7F3" transform="translate(226,89)"/>
<path d="M0 0 C1.79296875 0.16796875 1.79296875 0.16796875 4 1 C5.73828125 3.36328125 5.73828125 3.36328125 7.3125 6.3125 C7.84488281 7.27800781 8.37726563 8.24351563 8.92578125 9.23828125 C10.05065512 12.13022971 10.14513535 13.18069016 9 16 C8.60167969 15.18015625 8.20335937 14.3603125 7.79296875 13.515625 C7.26316406 12.43796875 6.73335938 11.3603125 6.1875 10.25 C5.66542969 9.18265625 5.14335937 8.1153125 4.60546875 7.015625 C3.2383308 4.44766758 1.82284537 2.25529217 0 0 Z " fill="#DEE9F0" transform="translate(269,62)"/>
<path d="M0 0 C0.33 0 0.66 0 1 0 C1.36622304 6.46994034 1.36622304 6.46994034 -0.1875 8.71875 C-2.62717234 10.44334597 -4.23127272 10.30267769 -7.1875 10.1875 C-8.08855469 10.16042969 -8.98960937 10.13335937 -9.91796875 10.10546875 C-10.60503906 10.07066406 -11.29210937 10.03585938 -12 10 C-11.67 9.34 -11.34 8.68 -11 8 C-9.906875 8.0825 -8.81375 8.165 -7.6875 8.25 C-4.02384052 8.39138979 -4.02384052 8.39138979 -2.125 6.25 C-1.07184662 4.14369325 -0.41291404 2.31231862 0 0 Z " fill="#2470DC" transform="translate(257,78)"/>
<path d="M0 0 C0.66 0.66 1.32 1.32 2 2 C-1.465 4.97 -1.465 4.97 -5 8 C-5.33 6.68 -5.66 5.36 -6 4 C-4.5625 2.25 -4.5625 2.25 -3 1 C-3 1.66 -3 2.32 -3 3 C-2.34 3 -1.68 3 -1 3 C-0.67 2.01 -0.34 1.02 0 0 Z " fill="#135BE7" transform="translate(139,257)"/>
<path d="M0 0 C0.33 0.66 0.66 1.32 1 2 C-0.87577357 6.06417607 -2.93582393 8.12422643 -7 10 C-7.66 9.67 -8.32 9.34 -9 9 C-6.03 6.03 -3.06 3.06 0 0 Z " fill="#DAE5F2" transform="translate(269,132)"/>
<path d="M0 0 C2.90408342 3.87211123 3.85079464 6.40317854 5 11 C3.68 10.67 2.36 10.34 1 10 C0.67 6.7 0.34 3.4 0 0 Z " fill="#257CE2" transform="translate(160,123)"/>
<path d="M0 0 C1.32 0 2.64 0 4 0 C3.75 2.375 3.75 2.375 3 5 C0.9375 6.3125 0.9375 6.3125 -1 7 C-1.625 5.1875 -1.625 5.1875 -2 3 C-1.34 2.01 -0.68 1.02 0 0 Z " fill="#125EEF" transform="translate(272,120)"/>
<path d="M0 0 C0.99 0.66 1.98 1.32 3 2 C2.01 2.495 2.01 2.495 1 3 C0.79029441 7.14093698 0.79029441 7.14093698 2 11 C0.35 10.67 -1.3 10.34 -3 10 C-2.49287967 6.28111761 -1.88391785 3.26545761 0 0 Z " fill="#3A8CE3" transform="translate(63,111)"/>
<path d="M0 0 C0.66 0 1.32 0 2 0 C0.72278474 4.99275057 -1.17330957 7.57611908 -5 11 C-5 9.68 -5 8.36 -5 7 C-4.34 7 -3.68 7 -3 7 C-2.67 6.01 -2.34 5.02 -2 4 C-1.34 4 -0.68 4 0 4 C0 2.68 0 1.36 0 0 Z " fill="#2160E0" transform="translate(253,238)"/>
<path d="M0 0 C0.66 1.32 1.32 2.64 2 4 C1.34 4 0.68 4 0 4 C-0.99 7.96 -1.98 11.92 -3 16 C-4.13200698 11.4719721 -3.60058415 10.03799216 -2.0625 5.75 C-1.68222656 4.67234375 -1.30195312 3.5946875 -0.91015625 2.484375 C-0.45962891 1.25460938 -0.45962891 1.25460938 0 0 Z " fill="#4690DA" transform="translate(43,125)"/>
<path d="M0 0 C5.35152885 0.32433508 8.28280043 3.49704824 12 7 C11.01 7.495 11.01 7.495 10 8 C9.01 7.67 8.02 7.34 7 7 C7 6.34 7 5.68 7 5 C6.34 5 5.68 5 5 5 C4.34 4.01 3.68 3.02 3 2 C2.01 2 1.02 2 0 2 C0 1.34 0 0.68 0 0 Z " fill="#318BE7" transform="translate(135,97)"/>
<path d="M0 0 C0.33 0.99 0.66 1.98 1 3 C0.38125 3.556875 -0.2375 4.11375 -0.875 4.6875 C-3.06106379 7.06645178 -3.98785699 8.96357096 -5 12 C-5.66 12 -6.32 12 -7 12 C-5.63855967 6.80177328 -3.53269829 3.90456127 0 0 Z " fill="#328ADF" transform="translate(176,62)"/>
<path d="M0 0 C0.33 0 0.66 0 1 0 C1.20016822 3.60302803 0.99767079 5.95092353 -1 9 C-1.99 9.66 -2.98 10.32 -4 11 C-4.99 10.67 -5.98 10.34 -7 10 C-6.57847656 9.61328125 -6.15695313 9.2265625 -5.72265625 8.828125 C-5.17480469 8.30734375 -4.62695312 7.7865625 -4.0625 7.25 C-3.51722656 6.73953125 -2.97195312 6.2290625 -2.41015625 5.703125 C-0.83955308 3.80621924 -0.41268714 2.40298839 0 0 Z " fill="#3F92E5" transform="translate(87,120)"/>
<path d="M0 0 C3.3 0 6.6 0 10 0 C10 0.33 10 0.66 10 1 C8.88625 1.12375 7.7725 1.2475 6.625 1.375 C2.96896323 1.6465813 2.96896323 1.6465813 1 4 C0.60235737 5.98821313 0.26224651 7.98944339 0 10 C-0.33 10 -0.66 10 -1 10 C-1.125 3.375 -1.125 3.375 0 0 Z " fill="#4087E0" transform="translate(190,105)"/>
<path d="M0 0 C0.66 0.33 1.32 0.66 2 1 C1 4 1 4 -1 5 C-2.99960012 5.039992 -5.00047242 5.04346799 -7 5 C-7 4.34 -7 3.68 -7 3 C-4.69631264 1.93347808 -2.35981813 0.93578995 0 0 Z " fill="#2C84E7" transform="translate(135,135)"/>
<path d="M0 0 C2 2 2 2 2 6 C0.35 6.66 -1.3 7.32 -3 8 C-1.125 1.125 -1.125 1.125 0 0 Z " fill="#2686E8" transform="translate(47,117)"/>
<path d="M0 0 C0.268125 0.61875 0.53625 1.2375 0.8125 1.875 C1.95556848 4.2995233 1.95556848 4.2995233 5 6 C2.69 6.66 0.38 7.32 -2 8 C-1.125 1.125 -1.125 1.125 0 0 Z " fill="#055BF0" transform="translate(168,153)"/>
<path d="M0 0 C1.09658936 3.28976808 0.79953138 4.71303767 0 8 C0.66 8.33 1.32 8.66 2 9 C-0.475 10.485 -0.475 10.485 -3 12 C-2.69106068 10.3743193 -2.3777305 8.74947252 -2.0625 7.125 C-1.88847656 6.22007812 -1.71445312 5.31515625 -1.53515625 4.3828125 C-1 2 -1 2 0 0 Z " fill="#0B84F9" transform="translate(43,129)"/>
<path d="M0 0 C0.99 0 1.98 0 3 0 C2.814375 0.515625 2.62875 1.03125 2.4375 1.5625 C1.84580483 4.85908739 2.432733 7.72245735 3 11 C2.34 10.67 1.68 10.34 1 10 C0.5859375 7.71484375 0.5859375 7.71484375 0.375 4.9375 C0.30023438 4.01839844 0.22546875 3.09929687 0.1484375 2.15234375 C0.09945312 1.44207031 0.05046875 0.73179688 0 0 Z " fill="#0F81F2" transform="translate(87,115)"/>
<path d="M0 0 C3.81936528 1.55603771 6.26044438 3.95604931 9 7 C9 7.66 9 8.32 9 9 C4.44984107 7.48328036 2.49942736 3.83108947 0 0 Z " fill="#EBF0F2" transform="translate(146,103)"/>
<path d="M0 0 C1.65 1.65 3.3 3.3 5 5 C4.01 5.495 4.01 5.495 3 6 C3 6.66 3 7.32 3 8 C2.01 7.67 1.02 7.34 0 7 C0.33 6.01 0.66 5.02 1 4 C0.34 3.34 -0.32 2.68 -1 2 C-0.67 1.34 -0.34 0.68 0 0 Z " fill="#E9EFF3" transform="translate(50,202)"/>
<path d="M0 0 C3.00617269 3.00617269 2.59585316 5.82381598 3 10 C2.01 10 1.02 10 0 10 C0 6.7 0 3.4 0 0 Z " fill="#2879E0" transform="translate(278,78)"/>
<path d="M0 0 C-0.99 1.485 -0.99 1.485 -2 3 C-5.125 3.1875 -5.125 3.1875 -8 3 C-8 2.34 -8 1.68 -8 1 C-5.29120665 -0.35439668 -2.99066732 -0.06501451 0 0 Z " fill="#258AF8" transform="translate(93,86)"/>
<path d="M0 0 C2.0625 0.4375 2.0625 0.4375 4 1 C1.03 3.475 1.03 3.475 -2 6 C-1.125 1.125 -1.125 1.125 0 0 Z " fill="#155DE4" transform="translate(122,271)"/>
<path d="M0 0 C2.5 1.625 2.5 1.625 5 4 C5.3125 7.25 5.3125 7.25 5 10 C3 7 3 7 3 4 C2.01 3.67 1.02 3.34 0 3 C0 2.01 0 1.02 0 0 Z " fill="#D1E0EF" transform="translate(141,118)"/>
<path d="M0 0 C-0.33 0.66 -0.66 1.32 -1 2 C-3.3140622 2.73075648 -5.64828869 3.40138258 -8 4 C-7 1 -7 1 -5.125 -0.25 C-3 -1 -3 -1 0 0 Z " fill="#F0F5F7" transform="translate(208,41)"/>
<path d="M0 0 C2.31 1.65 4.62 3.3 7 5 C4.3333581 6.33332095 2.83319697 5.67102033 0 5 C0 3.35 0 1.7 0 0 Z " fill="#E8EEF2" transform="translate(65,219)"/>
<path d="M0 0 C2.475 0.495 2.475 0.495 5 1 C4.67 3.31 4.34 5.62 4 8 C2.66666667 5.33333333 1.33333333 2.66666667 0 0 Z " fill="#1166E2" transform="translate(228,90)"/>
<path d="M0 0 C0.33 0 0.66 0 1 0 C1.36923077 6.52307692 1.36923077 6.52307692 -0.5 8.9375 C-0.995 9.288125 -1.49 9.63875 -2 10 C-1.54177532 6.53058454 -1.10868317 3.32604951 0 0 Z " fill="#3084DE" transform="translate(166,78)"/>
<path d="M0 0 C0.66 0 1.32 0 2 0 C1.42655063 2.86724686 1.1385485 3.8614515 -1 6 C-1.66 5.67 -2.32 5.34 -3 5 C-1.125 1.125 -1.125 1.125 0 0 Z " fill="#3590E8" transform="translate(180,57)"/>
</svg>
